<svg xmlns="http://www.w3.org/2000/svg" viewBox="0 0 68 68" id="choose">
  <path d="M65 40H44.37l-1.56-2.62-.07-.13a.36.36 0 0 0-.07-.1l-.08-.09-19.33-19.33a1 1 0 0 0 0-1.41l-9.9-9.9L11.95 5l.71-.71a1 1 0 0 1 1.41 0l6.87 6.87a11.28 11.28 0 0 0 8 3.32 1 1 0 0 0 0-2 9.29 9.29 0 0 1-6.61-2.74l-6.85-6.86a3 3 0 0 0-4.24 0l-.71.71a5 5 0 0 0-7.07 7.07l2.83 2.83 9.9 9.89a1 1 0 0 0 1.41 0l19.33 19.33.16.13L40 44.57V65a1 1 0 0 0 1 1h24a1 1 0 0 0 1-1V41a1 1 0 0 0-1-1zM4.88 9.24A3 3 0 0 1 9.12 5l.71.71 1.41 1.41-5 5 .76-.76zm17 9.9l18.59 18.62-2.83 2.83L19 22zM64 64H42V45.75L47.5 49a1 1 0 0 0 .51.13 1 1 0 0 0 .86-1.51L45.55 42H64z"></path>
  <path d="M45.29 53.29a1 1 0 0 0 0 1.41l4 4a1 1 0 0 0 1.41 0l10-10a1 1 0 0 0-1.41-1.41L50 56.59l-3.3-3.3a1 1 0 0 0-1.41 0z"></path>
</svg>
