<svg xmlns="http://www.w3.org/2000/svg" xml:space="preserve" id="collaboration" x="0" y="0" enable-background="new 0 0 64 64" version="1.1" viewBox="0 0 64 64">
  <g>
    <g>
      <g>
        <g>
          <path d="M20.57,18.2c-0.09,0-0.18-0.02-0.26-0.07c-0.23-0.14-0.3-0.45-0.16-0.68l2.04-3.31l-4.1-0.53
					c-0.27-0.04-0.46-0.28-0.43-0.55c0.04-0.27,0.28-0.45,0.55-0.43l4.86,0.62c0.17,0.02,0.31,0.13,0.38,0.28
					c0.07,0.15,0.06,0.33-0.03,0.47l-2.44,3.96C20.9,18.11,20.74,18.2,20.57,18.2z"></path>
        </g>
        <g>
          <path d="M10.82,25.65c-0.07,0-0.14-0.01-0.2-0.04c-0.25-0.11-0.36-0.4-0.25-0.65c2.6-5.74,6.68-9.56,12.47-11.67
					c0.26-0.09,0.54,0.04,0.63,0.29c0.09,0.26-0.04,0.54-0.29,0.63c-5.53,2.02-9.42,5.67-11.91,11.15
					C11.19,25.54,11.01,25.65,10.82,25.65z"></path>
        </g>
      </g>
      <g>
        <g>
          <path d="M52.38,25.32c-0.08,0-0.16-0.02-0.23-0.06l-4.12-2.17c-0.24-0.13-0.33-0.42-0.21-0.66c0.13-0.24,0.42-0.33,0.66-0.21
					l3.44,1.81l0.25-4.13c0.02-0.27,0.25-0.48,0.52-0.46c0.27,0.02,0.48,0.25,0.46,0.52l-0.29,4.89c-0.01,0.17-0.1,0.32-0.25,0.4
					C52.55,25.3,52.47,25.32,52.38,25.32z"></path>
        </g>
        <g>
          <path d="M52.38,25.32c-0.19,0-0.37-0.11-0.45-0.29c-2.4-5.38-6.3-9.02-11.94-11.12c-0.25-0.09-0.38-0.38-0.29-0.63
					c0.1-0.26,0.38-0.38,0.63-0.29c5.9,2.2,9.99,6.01,12.5,11.64c0.11,0.25,0,0.54-0.25,0.65C52.52,25.3,52.45,25.32,52.38,25.32z"></path>
        </g>
      </g>
      <g>
        <g>
          <path d="M10.86,50.32c-0.02,0-0.03,0-0.05,0c-0.27-0.03-0.47-0.27-0.44-0.54l0.46-4.88c0.02-0.17,0.11-0.31,0.26-0.39
					c0.15-0.08,0.33-0.07,0.47,0.01l4.04,2.31c0.24,0.14,0.32,0.44,0.18,0.67c-0.14,0.24-0.44,0.32-0.67,0.18l-3.37-1.93l-0.39,4.12
					C11.33,50.13,11.11,50.32,10.86,50.32z"></path>
        </g>
        <g>
          <path d="M23.14,57.25c-0.06,0-0.13-0.01-0.19-0.04c-5.82-2.41-9.77-6.36-12.08-12.07c-0.1-0.25,0.02-0.54,0.27-0.64
					c0.25-0.1,0.54,0.02,0.64,0.27c2.21,5.46,5.98,9.23,11.55,11.53c0.25,0.1,0.37,0.39,0.27,0.64
					C23.52,57.14,23.33,57.25,23.14,57.25z"></path>
        </g>
      </g>
      <g>
        <g>
          <path d="M45.44,57.37c-0.02,0-0.05,0-0.07,0l-4.85-0.66c-0.17-0.02-0.31-0.13-0.38-0.28c-0.07-0.15-0.06-0.33,0.03-0.47
					l2.47-3.94c0.14-0.23,0.45-0.3,0.68-0.16c0.23,0.14,0.3,0.45,0.16,0.68l-2.07,3.29l4.1,0.56c0.27,0.04,0.46,0.29,0.42,0.55
					C45.89,57.19,45.68,57.37,45.44,57.37z"></path>
        </g>
        <g>
          <path d="M40.58,56.71c-0.2,0-0.39-0.13-0.46-0.33c-0.09-0.26,0.04-0.54,0.3-0.63c5.54-1.98,9.47-5.6,11.99-11.07
					c0.11-0.25,0.41-0.36,0.65-0.24c0.25,0.11,0.35,0.41,0.24,0.65c-2.64,5.72-6.75,9.51-12.56,11.58
					C40.69,56.7,40.64,56.71,40.58,56.71z"></path>
        </g>
      </g>
    </g>
    <g>
      <g>
        <g>
          <path d="M11.45,37.61c-1.49,0-2.77-0.57-3.61-1.61c-0.8-0.98-1.1-2.27-0.83-3.53c0.07-0.32,0.24-0.63,0.5-0.88
					c0.4-0.39,1.25-1.05,2.46-1.12c0.27-0.02,0.55,0.02,0.86,0.11c0.41,0.12,1.02,0.13,1.59-0.48c0.27-0.29,0.7-0.37,1.08-0.19
					c0.69,0.32,1.27,0.84,1.73,1.54c0.27,0.42,0.44,0.88,0.5,1.35c0.16,1.26-0.22,2.5-1.02,3.41C13.9,37.11,12.75,37.61,11.45,37.61
					z M10.08,31.45c-0.02,0-0.04,0-0.06,0C9.13,31.5,8.49,32,8.19,32.3C8.1,32.38,8,32.51,7.96,32.67c-0.2,0.97,0.03,1.96,0.63,2.71
					c0.65,0.8,1.66,1.24,2.85,1.24c1.03,0,1.9-0.37,2.51-1.06c0.62-0.7,0.9-1.66,0.78-2.63c-0.04-0.32-0.16-0.65-0.35-0.94
					c-0.36-0.55-0.79-0.94-1.32-1.18c-0.93,1.04-2.08,0.85-2.52,0.72C10.37,31.47,10.22,31.45,10.08,31.45z"></path>
        </g>
        <g>
          <path d="M15.22,33.36c-0.01,0-0.02,0-0.02,0c-0.27-0.01-0.48-0.24-0.47-0.51l0.19-4.16c0-0.1-0.04-0.2-0.12-0.26
					c-1.59-1.33-5.2-1.32-7.91,0c-0.06,2.26,1.01,3.66,1.02,3.67c0.17,0.21,0.13,0.52-0.08,0.69c-0.21,0.17-0.52,0.13-0.69-0.08
					c-0.05-0.07-1.34-1.71-1.23-4.4C5.93,28,6.1,27.72,6.38,27.58c2.69-1.35,6.91-1.7,9.05,0.09c0.31,0.26,0.49,0.66,0.47,1.06
					l-0.19,4.16C15.7,33.15,15.48,33.36,15.22,33.36z"></path>
        </g>
        <g>
          <path d="M8.35,39.13c-0.16,0-0.32-0.08-0.42-0.23c-0.15-0.23-0.08-0.53,0.15-0.68c0.63-0.4,0.96-1.08,1.12-1.58
					c0.06-0.2,0.25-0.35,0.47-0.35c0.27,0,0.49,0.22,0.49,0.49v0c0,0.05-0.01,0.1-0.02,0.15c-0.21,0.66-0.66,1.56-1.54,2.12
					C8.54,39.11,8.44,39.13,8.35,39.13z"></path>
        </g>
        <g>
          <path d="M14.2,39.17c-0.1,0-0.2-0.03-0.28-0.09c-0.82-0.58-1.22-1.46-1.42-2.1c-0.08-0.26,0.07-0.54,0.33-0.61
					c0.26-0.08,0.54,0.07,0.61,0.33c0.15,0.49,0.45,1.17,1.04,1.59c0.22,0.16,0.27,0.46,0.12,0.69
					C14.51,39.1,14.36,39.17,14.2,39.17z"></path>
        </g>
        <g>
          <path d="M18.41,43.55H4.24c-0.27,0-0.49-0.22-0.49-0.49v-1.52c0-1.94,1.58-3.51,3.51-3.51h0.4c0.4,0,0.79,0.09,1.15,0.27
					l2.51,1.23l2.51-1.23c0.36-0.17,0.75-0.27,1.15-0.27h0.4c1.94,0,3.51,1.58,3.51,3.51v1.52C18.91,43.33,18.69,43.55,18.41,43.55z
					 M4.73,42.56h13.19v-1.02c0-1.39-1.13-2.53-2.53-2.53h-0.4c-0.25,0-0.49,0.06-0.72,0.17l-2.73,1.34c-0.14,0.07-0.3,0.07-0.43,0
					l-2.73-1.34c-0.22-0.11-0.47-0.17-0.72-0.17h-0.4c-1.39,0-2.53,1.13-2.53,2.53V42.56z"></path>
        </g>
      </g>
    </g>
    <g>
      <g>
        <g>
          <path d="M32.12,11.16c-1.49,0-2.77-0.57-3.61-1.61c-0.8-0.98-1.1-2.27-0.83-3.53c0.07-0.32,0.24-0.63,0.5-0.88
					c0.4-0.39,1.25-1.05,2.46-1.12C30.9,4,31.18,4.04,31.49,4.13c0.41,0.12,1.02,0.13,1.59-0.48c0.27-0.29,0.7-0.37,1.07-0.19
					c0.69,0.32,1.27,0.84,1.73,1.54c0.27,0.42,0.44,0.88,0.5,1.35c0.16,1.26-0.22,2.5-1.02,3.41
					C34.57,10.66,33.42,11.16,32.12,11.16z M30.75,5c-0.02,0-0.04,0-0.06,0c-0.89,0.05-1.53,0.55-1.83,0.85
					c-0.08,0.08-0.19,0.21-0.22,0.38c-0.2,0.97,0.03,1.96,0.63,2.71c0.65,0.8,1.66,1.24,2.85,1.24c1.03,0,1.9-0.37,2.51-1.06
					c0.62-0.7,0.9-1.66,0.78-2.63c-0.04-0.32-0.16-0.65-0.35-0.94c-0.36-0.55-0.79-0.94-1.32-1.18c-0.93,1.03-2.07,0.85-2.52,0.72
					C31.04,5.03,30.89,5,30.75,5z"></path>
        </g>
        <g>
          <path d="M35.9,6.91c-0.01,0-0.01,0-0.02,0C35.6,6.9,35.39,6.67,35.41,6.4l0.19-4.16c0-0.1-0.04-0.2-0.12-0.26
					c-1.59-1.33-5.2-1.32-7.91,0c-0.06,2.26,1.01,3.66,1.02,3.67c0.17,0.21,0.13,0.52-0.08,0.69c-0.21,0.17-0.52,0.13-0.69-0.08
					c-0.05-0.07-1.34-1.71-1.23-4.4c0.01-0.31,0.19-0.59,0.47-0.73c2.69-1.35,6.91-1.7,9.05,0.09c0.31,0.26,0.49,0.66,0.47,1.06
					l-0.19,4.16C36.38,6.71,36.16,6.91,35.9,6.91z"></path>
        </g>
        <g>
          <path d="M29.03,12.68c-0.16,0-0.32-0.08-0.42-0.23c-0.15-0.23-0.08-0.53,0.15-0.68c0.63-0.4,0.96-1.08,1.12-1.58
					c0.06-0.2,0.25-0.35,0.47-0.35c0.27,0,0.49,0.22,0.49,0.49v0c0,0.05-0.01,0.1-0.02,0.15c-0.21,0.66-0.66,1.56-1.54,2.12
					C29.21,12.66,29.12,12.68,29.03,12.68z"></path>
        </g>
        <g>
          <path d="M34.88,12.72c-0.1,0-0.2-0.03-0.28-0.09c-0.82-0.58-1.22-1.46-1.42-2.1c-0.08-0.26,0.07-0.54,0.33-0.61
					c0.26-0.08,0.54,0.07,0.62,0.33c0.15,0.49,0.45,1.17,1.04,1.59c0.22,0.16,0.27,0.46,0.12,0.69
					C35.18,12.65,35.03,12.72,34.88,12.72z"></path>
        </g>
        <g>
          <path d="M39.09,17.1H24.91c-0.27,0-0.49-0.22-0.49-0.49v-1.52c0-1.94,1.58-3.51,3.51-3.51h0.4c0.4,0,0.79,0.09,1.15,0.27
					L32,13.08l2.51-1.23c0.36-0.17,0.75-0.27,1.15-0.27h0.4c1.94,0,3.51,1.58,3.51,3.51v1.52C39.58,16.88,39.36,17.1,39.09,17.1z
					 M25.41,16.12h13.19v-1.02c0-1.39-1.13-2.53-2.53-2.53h-0.4c-0.25,0-0.5,0.06-0.72,0.17l-2.73,1.34c-0.14,0.07-0.3,0.07-0.43,0
					l-2.73-1.34c-0.22-0.11-0.47-0.17-0.72-0.17h-0.4c-1.39,0-2.53,1.13-2.53,2.53V16.12z"></path>
        </g>
      </g>
    </g>
    <g>
      <g>
        <g>
          <path d="M32.12,58.06c-1.49,0-2.77-0.57-3.61-1.61c-0.8-0.98-1.1-2.27-0.83-3.53c0.07-0.32,0.24-0.63,0.5-0.88
					c0.4-0.39,1.25-1.05,2.46-1.12c0.27-0.02,0.55,0.02,0.86,0.11c0.41,0.12,1.02,0.13,1.59-0.48c0.27-0.29,0.7-0.37,1.07-0.19
					c0.69,0.32,1.27,0.84,1.73,1.54c0.27,0.42,0.44,0.88,0.5,1.35c0.16,1.26-0.22,2.5-1.02,3.41
					C34.57,57.56,33.42,58.06,32.12,58.06z M30.75,51.9c-0.02,0-0.04,0-0.06,0c-0.89,0.05-1.53,0.55-1.83,0.85
					c-0.08,0.08-0.19,0.21-0.22,0.38c-0.2,0.97,0.03,1.96,0.63,2.71c0.65,0.8,1.66,1.24,2.85,1.24c1.03,0,1.89-0.37,2.51-1.06
					c0.62-0.7,0.9-1.66,0.78-2.64c-0.04-0.32-0.16-0.65-0.35-0.94c-0.36-0.55-0.79-0.94-1.32-1.18c-0.93,1.03-2.08,0.85-2.52,0.72
					C31.04,51.93,30.89,51.9,30.75,51.9z"></path>
        </g>
        <g>
          <path d="M35.9,53.81c-0.01,0-0.01,0-0.02,0c-0.27-0.01-0.48-0.24-0.47-0.51l0.19-4.16c0-0.1-0.04-0.2-0.12-0.26
					c-1.59-1.33-5.2-1.32-7.91,0c-0.06,2.26,1.01,3.66,1.02,3.67c0.17,0.21,0.13,0.52-0.08,0.69c-0.21,0.17-0.52,0.13-0.69-0.08
					c-0.05-0.07-1.34-1.71-1.23-4.4c0.01-0.31,0.19-0.59,0.47-0.73c2.69-1.35,6.91-1.7,9.05,0.09c0.31,0.26,0.49,0.66,0.47,1.06
					l-0.19,4.16C36.38,53.6,36.16,53.81,35.9,53.81z"></path>
        </g>
        <g>
          <path d="M29.03,59.58c-0.16,0-0.32-0.08-0.42-0.23c-0.15-0.23-0.08-0.53,0.15-0.68c0.63-0.4,0.96-1.08,1.12-1.58
					c0.06-0.2,0.25-0.35,0.47-0.35c0.27,0,0.49,0.22,0.49,0.49v0c0,0.05-0.01,0.1-0.02,0.15c-0.21,0.66-0.66,1.56-1.54,2.12
					C29.21,59.56,29.12,59.58,29.03,59.58z"></path>
        </g>
        <g>
          <path d="M34.88,59.62c-0.1,0-0.2-0.03-0.28-0.09c-0.82-0.58-1.22-1.46-1.42-2.1c-0.08-0.26,0.07-0.54,0.33-0.61
					c0.26-0.08,0.54,0.07,0.61,0.33c0.15,0.49,0.45,1.17,1.04,1.59c0.22,0.16,0.27,0.46,0.12,0.69
					C35.18,59.55,35.03,59.62,34.88,59.62z"></path>
        </g>
        <g>
          <path d="M39.09,64H24.91c-0.27,0-0.49-0.22-0.49-0.49v-1.52c0-1.94,1.58-3.51,3.51-3.51h0.4c0.4,0,0.79,0.09,1.15,0.27L32,59.98
					l2.51-1.23c0.35-0.17,0.75-0.27,1.15-0.27h0.4c1.94,0,3.51,1.58,3.51,3.51v1.52C39.58,63.78,39.36,64,39.09,64z M25.41,63.02
					h13.19v-1.02c0-1.39-1.13-2.53-2.53-2.53h-0.4c-0.25,0-0.5,0.06-0.72,0.17l-2.73,1.34c-0.14,0.07-0.3,0.07-0.43,0l-2.73-1.34
					c-0.22-0.11-0.47-0.17-0.72-0.17h-0.4c-1.39,0-2.53,1.13-2.53,2.53V63.02z"></path>
        </g>
      </g>
    </g>
    <g>
      <g>
        <path d="M52.79,37.61c-1.49,0-2.77-0.57-3.61-1.61c-0.79-0.98-1.1-2.27-0.83-3.53c0.07-0.32,0.24-0.63,0.5-0.88
				c0.4-0.39,1.25-1.05,2.45-1.12c0.27-0.02,0.55,0.02,0.86,0.11c0.41,0.12,1.02,0.13,1.59-0.48c0.27-0.29,0.7-0.36,1.07-0.19
				c0.69,0.32,1.27,0.84,1.73,1.54c0.27,0.42,0.44,0.88,0.5,1.35c0.16,1.26-0.21,2.5-1.02,3.41C55.25,37.11,54.09,37.61,52.79,37.61
				z M51.43,31.45c-0.02,0-0.04,0-0.07,0c-0.89,0.05-1.53,0.55-1.83,0.85c-0.08,0.08-0.19,0.21-0.22,0.38
				c-0.2,0.97,0.03,1.96,0.63,2.71c0.65,0.8,1.66,1.24,2.85,1.24c1.03,0,1.9-0.37,2.51-1.06c0.62-0.7,0.9-1.66,0.78-2.63
				c-0.04-0.32-0.16-0.65-0.35-0.94c-0.36-0.55-0.79-0.94-1.32-1.19c-0.93,1.04-2.08,0.85-2.52,0.72
				C51.72,31.47,51.56,31.45,51.43,31.45z"></path>
      </g>
      <g>
        <path d="M56.57,33.36c-0.01,0-0.01,0-0.02,0c-0.27-0.01-0.48-0.24-0.47-0.51l0.19-4.16c0-0.1-0.04-0.2-0.12-0.26
				c-1.59-1.33-5.2-1.32-7.91,0c-0.06,2.26,1.01,3.66,1.02,3.67c0.17,0.21,0.13,0.52-0.08,0.69c-0.21,0.17-0.52,0.13-0.69-0.08
				c-0.05-0.07-1.34-1.71-1.23-4.4c0.01-0.31,0.19-0.59,0.47-0.73c2.69-1.35,6.91-1.7,9.05,0.09c0.31,0.26,0.49,0.66,0.47,1.06
				l-0.19,4.16C57.05,33.15,56.83,33.36,56.57,33.36z"></path>
      </g>
      <g>
        <path d="M49.7,39.13c-0.16,0-0.32-0.08-0.42-0.23c-0.15-0.23-0.08-0.53,0.15-0.68c0.63-0.4,0.96-1.08,1.12-1.58
				c0.06-0.2,0.25-0.36,0.47-0.36c0.27,0,0.49,0.22,0.49,0.49v0c0,0.05-0.01,0.1-0.02,0.15c-0.21,0.66-0.65,1.56-1.54,2.12
				C49.88,39.11,49.79,39.13,49.7,39.13z"></path>
      </g>
      <g>
        <path d="M55.55,39.17c-0.1,0-0.2-0.03-0.28-0.09c-0.81-0.58-1.22-1.46-1.42-2.1c-0.08-0.26,0.07-0.54,0.33-0.62
				c0.26-0.08,0.54,0.07,0.61,0.33c0.15,0.49,0.46,1.17,1.05,1.59c0.22,0.16,0.27,0.46,0.12,0.69C55.86,39.1,55.7,39.17,55.55,39.17
				z"></path>
      </g>
      <g>
        <path d="M59.76,43.55H45.59c-0.27,0-0.49-0.22-0.49-0.49v-1.52c0-1.94,1.58-3.51,3.51-3.51h0.4c0.4,0,0.79,0.09,1.15,0.27
				l2.52,1.23l2.51-1.23c0.36-0.17,0.76-0.27,1.15-0.27h0.4c1.94,0,3.51,1.58,3.51,3.51v1.52C60.25,43.33,60.03,43.55,59.76,43.55z
				 M46.08,42.56h13.19v-1.02c0-1.39-1.13-2.53-2.53-2.53h-0.4c-0.25,0-0.5,0.06-0.72,0.17l-2.73,1.34c-0.14,0.07-0.3,0.07-0.43,0
				l-2.73-1.34c-0.22-0.11-0.47-0.17-0.72-0.17h-0.4c-1.39,0-2.53,1.13-2.53,2.53V42.56z"></path>
      </g>
    </g>
    <g>
      <path d="M33.53,44.37h-3.06c-0.33,0-0.6-0.27-0.6-0.6v-1.4c-0.88-0.21-1.71-0.56-2.48-1.03l-0.99,0.99
			c-0.09,0.09-0.29,0.18-0.43,0.18c-0.18-0.02-0.31-0.06-0.43-0.18l-2.16-2.16c-0.23-0.23-0.23-0.61,0-0.85l0.99-0.99
			c-0.47-0.77-0.81-1.6-1.03-2.48h-1.4c-0.33,0-0.6-0.27-0.6-0.6v-3.06c0-0.33,0.27-0.6,0.6-0.6h1.4c0.22-0.88,0.56-1.71,1.03-2.48
			l-0.99-0.99c-0.23-0.24-0.23-0.62,0-0.85l2.16-2.16c0.09-0.09,0.34-0.16,0.42-0.18c0.16,0,0.31,0.06,0.42,0.18l0.99,0.99
			c0.77-0.47,1.6-0.81,2.48-1.03v-1.4c0-0.33,0.27-0.6,0.6-0.6h3.06c0.33,0,0.6,0.27,0.6,0.6v1.4c0.88,0.21,1.71,0.56,2.48,1.03
			l0.99-0.99c0.09-0.09,0.29-0.18,0.42-0.18c0.16,0,0.31,0.06,0.43,0.18l2.16,2.16c0.23,0.23,0.23,0.61,0,0.85l-0.99,0.99
			c0.47,0.77,0.81,1.6,1.03,2.48h1.4c0.33,0,0.6,0.27,0.6,0.6v3.06c0,0.33-0.27,0.6-0.6,0.6h-1.4c-0.22,0.88-0.56,1.71-1.03,2.48
			l0.99,0.99c0.23,0.24,0.23,0.62,0,0.85l-2.16,2.16c-0.09,0.09-0.29,0.18-0.42,0.18c-0.16,0-0.31-0.06-0.43-0.18l-0.99-0.99
			c-0.77,0.47-1.61,0.81-2.48,1.03v1.4C34.13,44.1,33.86,44.37,33.53,44.37z M30.85,43.38h2.29v-1.32c0-0.28,0.2-0.53,0.48-0.59
			c0.97-0.2,1.89-0.58,2.72-1.12c0.24-0.15,0.55-0.12,0.75,0.08l0.93,0.93l1.62-1.62l-0.94-0.94c-0.2-0.2-0.23-0.52-0.08-0.75
			c0.54-0.83,0.92-1.74,1.12-2.71c0.05-0.27,0.3-0.48,0.59-0.48h1.32v-2.29h-1.32c-0.29,0-0.53-0.2-0.59-0.49
			c-0.2-0.96-0.58-1.88-1.12-2.71c-0.15-0.23-0.12-0.55,0.07-0.75l0.94-0.94l-1.62-1.62L37.09,27c-0.2,0.2-0.51,0.23-0.75,0.08
			c-0.83-0.54-1.74-0.92-2.71-1.12c-0.28-0.06-0.48-0.31-0.48-0.59v-1.32h-2.29v1.32c0,0.28-0.2,0.53-0.47,0.59
			c-0.98,0.2-1.89,0.58-2.72,1.13c-0.23,0.15-0.55,0.12-0.75-0.08l-0.94-0.94l-1.62,1.62l0.94,0.94c0.2,0.2,0.23,0.52,0.08,0.75
			c-0.54,0.83-0.92,1.74-1.12,2.71c-0.06,0.28-0.3,0.48-0.59,0.48h-1.32v2.29h1.32c0.28,0,0.53,0.2,0.59,0.48
			c0.2,0.97,0.58,1.88,1.12,2.71c0.16,0.24,0.12,0.55-0.08,0.75l-0.93,0.93l1.62,1.62l0.94-0.94c0.2-0.2,0.51-0.23,0.75-0.08
			c0.83,0.54,1.74,0.92,2.72,1.12c0.28,0.06,0.48,0.31,0.48,0.59V43.38z M37.76,41.63C37.76,41.63,37.76,41.63,37.76,41.63
			L37.76,41.63z M27.12,41.17C27.12,41.17,27.12,41.17,27.12,41.17C27.12,41.17,27.12,41.17,27.12,41.17z M36.88,41.17
			C36.88,41.17,36.88,41.17,36.88,41.17C36.88,41.17,36.88,41.17,36.88,41.17z M36.4,41.12C36.4,41.12,36.4,41.13,36.4,41.12
			L36.4,41.12z M24.54,38.59C24.54,38.59,24.54,38.59,24.54,38.59C24.54,38.59,24.54,38.59,24.54,38.59z M39.46,38.59
			C39.46,38.59,39.46,38.59,39.46,38.59C39.46,38.59,39.46,38.59,39.46,38.59z M24.59,38.11C24.59,38.11,24.59,38.11,24.59,38.11
			L24.59,38.11z M40.73,35.53c0,0,0,0.01,0,0.01C40.73,35.54,40.73,35.53,40.73,35.53z M23.27,35.54
			C23.27,35.54,23.28,35.54,23.27,35.54C23.28,35.54,23.27,35.54,23.27,35.54z M23.27,31.89C23.27,31.89,23.27,31.89,23.27,31.89
			C23.27,31.89,23.27,31.89,23.27,31.89z M40.72,31.88c0,0,0,0.01,0,0.01C40.72,31.88,40.72,31.88,40.72,31.88z M24.54,28.83
			C24.54,28.83,24.54,28.83,24.54,28.83C24.54,28.83,24.54,28.83,24.54,28.83z M39.46,28.83C39.46,28.83,39.46,28.83,39.46,28.83
			C39.46,28.83,39.46,28.83,39.46,28.83z M36.4,26.3C36.4,26.3,36.39,26.3,36.4,26.3L36.4,26.3z M27.12,26.25
			C27.12,26.25,27.12,26.25,27.12,26.25C27.12,26.25,27.12,26.25,27.12,26.25z M36.88,26.25C36.88,26.25,36.88,26.25,36.88,26.25
			C36.88,26.25,36.88,26.25,36.88,26.25z M38.3,25.79L38.3,25.79C38.3,25.79,38.3,25.79,38.3,25.79z M26.25,25.79L26.25,25.79
			C26.24,25.79,26.24,25.79,26.25,25.79z"></path>
    </g>
    <g>
      <path d="M32,38.94c-2.88,0-5.22-2.34-5.22-5.22c0-2.88,2.34-5.22,5.22-5.22s5.22,2.34,5.22,5.22C37.22,36.59,34.88,38.94,32,38.94
			z M32,29.47c-2.34,0-4.24,1.9-4.24,4.24c0,2.34,1.9,4.24,4.24,4.24c2.34,0,4.24-1.9,4.24-4.24C36.24,31.38,34.34,29.47,32,29.47z"></path>
    </g>
  </g>
</svg>
