<svg xmlns="http://www.w3.org/2000/svg" enable-background="new 0 0 100 100" viewBox="0 0 100 100" id="date-plan">
  <path d="M72.7,89.6c-8.7,0-16.5-4.9-20.4-12.6H10.6c-3.3,0-6-2.7-6-6V23.8c0-3.3,2.7-6,6-6h7.5v-2.9c0-2.4,2-4.4,4.4-4.4h3.8
		c2.4,0,4.4,2,4.4,4.4v2.9h5.5v-2.9c0-2.4,2-4.4,4.4-4.4h3.8c2.4,0,4.4,2,4.4,4.4v2.9h5.5v-2.9c0-2.4,2-4.4,4.4-4.4h3.8
		c2.4,0,4.4,2,4.4,4.4v2.9h7.5c3.3,0,6,2.7,6,6v21.7c8.9,3.2,15,11.8,15,21.4C95.4,79.4,85.2,89.6,72.7,89.6z M53.9,66.8
		c0,2.5,0.5,5,1.5,7.3c3,6.9,9.7,11.4,17.3,11.4c10.3,0,18.8-8.4,18.8-18.7c0-8.3-5.6-15.7-13.5-18c-1.8-0.5-3.5-0.8-5.2-0.8
		C62.3,48.1,53.9,56.5,53.9,66.8z M8.6,32.9v38c0,1.1,0.9,2,2,2h40.2c-0.5-1.9-0.8-3.9-0.8-5.9c0,0,0-0.1,0-0.1c0,0,0-0.1,0-0.1
		c0-12.5,10.2-22.8,22.8-22.8c1.3,0,2.5,0.1,3.8,0.3V32.9H8.6z M8.6,28.9h67.9v-5.2c0-1.1-0.9-2-2-2H67v1.1c0,2.4-2,4.4-4.4,4.4
		h-3.8c-2.4,0-4.4-2-4.4-4.4v-1.1h-5.5v1.1c0,2.4-2,4.4-4.4,4.4h-3.8c-2.4,0-4.4-2-4.4-4.4v-1.1h-5.5v1.1c0,2.4-2,4.4-4.4,4.4h-3.8
		c-2.4,0-4.4-2-4.4-4.4v-1.1h-7.5c-1.1,0-2,0.9-2,2V28.9z M58.3,22.9c0,0.2,0.2,0.4,0.4,0.4h3.8c0.2,0,0.4-0.2,0.4-0.4v-8
		c0-0.2-0.2-0.4-0.4-0.4h-3.8c-0.2,0-0.4,0.2-0.4,0.4V22.9z M40.2,22.9c0,0.2,0.2,0.4,0.4,0.4h3.8c0.2,0,0.4-0.2,0.4-0.4v-8
		c0-0.2-0.2-0.4-0.4-0.4h-3.8c-0.2,0-0.4,0.2-0.4,0.4V22.9z M22.1,22.9c0,0.2,0.2,0.4,0.4,0.4h3.8c0.2,0,0.4-0.2,0.4-0.4v-8
		c0-0.2-0.2-0.4-0.4-0.4h-3.8c-0.2,0-0.4,0.2-0.4,0.4V22.9z M71.2,70.7c-0.5,0-1-0.2-1.4-0.6L62.7,63c-0.8-0.8-0.8-2,0-2.8
		c0.8-0.8,2-0.8,2.8,0l5.7,5.7l8.5-8.5c0.8-0.8,2-0.8,2.8,0c0.8,0.8,0.8,2,0,2.8l-9.9,9.9C72.2,70.5,71.7,70.7,71.2,70.7z"></path>
</svg>
