<svg width="24" height="25" viewBox="0 0 24 25" fill="none" xmlns="http://www.w3.org/2000/svg">
<g id="Icon / Dribble">
<path id="Vector" fill-rule="evenodd" clip-rule="evenodd" d="M12 3.38867C7.03145 3.38867 3 7.42012 3 12.3887C3 17.3573 7.03145 21.3887 12 21.3887C16.9588 21.3887 21 17.3573 21 12.3887C21 7.42012 16.9588 3.38867 12 3.38867ZM17.9447 7.53726C19.0184 8.84529 19.6627 10.5145 19.6822 12.3204C19.4284 12.2716 16.8904 11.7542 14.333 12.0763C14.2744 11.9494 14.2256 11.8128 14.167 11.6761C14.0108 11.3052 13.8352 10.9245 13.6594 10.5633C16.4902 9.41147 17.7787 7.75201 17.9447 7.53726ZM12 4.71622C13.9523 4.71622 15.7386 5.44833 17.0955 6.64898C16.9588 6.8442 15.7972 8.39626 13.064 9.4212C11.8048 7.10776 10.4089 5.21405 10.1942 4.92121C10.77 4.78455 11.3753 4.71622 12 4.71622ZM8.72996 5.43856C8.93494 5.71188 10.3015 7.61535 11.5803 9.87998C7.98807 10.8367 4.81562 10.8171 4.47397 10.8171C4.9718 8.43531 6.58243 6.45374 8.72996 5.43856ZM4.30803 12.3985C4.30803 12.3204 4.30803 12.2423 4.30803 12.1642C4.63991 12.1739 8.36876 12.2228 12.205 11.0709C12.4295 11.5004 12.6345 11.9397 12.8297 12.3789C12.7321 12.4082 12.6247 12.4375 12.5271 12.4668C8.56399 13.7455 6.45553 17.2401 6.27983 17.5329C5.05965 16.1761 4.30803 14.3703 4.30803 12.3985ZM12 20.0807C10.2234 20.0807 8.58352 19.4755 7.28525 18.4603C7.42191 18.1772 8.98371 15.1707 13.3178 13.6577C13.3373 13.6479 13.3471 13.6479 13.3666 13.6382C14.4501 16.4397 14.8894 18.7921 15.0065 19.4657C14.0792 19.8659 13.064 20.0807 12 20.0807ZM16.2852 18.7629C16.2072 18.2943 15.7972 16.0492 14.7917 13.2867C17.2028 12.906 19.3113 13.5308 19.5749 13.6187C19.243 15.7564 18.013 17.6013 16.2852 18.7629Z" fill="black"/>
</g>
</svg>
