<svg width="25" height="25" viewBox="0 0 25 25" fill="none" xmlns="http://www.w3.org/2000/svg">
<g id="Icon / envelope">
<path id="icon" d="M20.5 4.38867H4.5C3.397 4.38867 2.5 5.28567 2.5 6.38867V18.3887C2.5 19.4917 3.397 20.3887 4.5 20.3887H20.5C21.603 20.3887 22.5 19.4917 22.5 18.3887V6.38867C22.5 5.28567 21.603 4.38867 20.5 4.38867ZM20.5 6.38867V6.89967L12.5 13.1227L4.5 6.90067V6.38867H20.5ZM4.5 18.3887V9.43267L11.886 15.1777C12.0611 15.3152 12.2773 15.39 12.5 15.39C12.7227 15.39 12.9389 15.3152 13.114 15.1777L20.5 9.43267L20.502 18.3887H4.5Z" fill="black"/>
</g>
</svg>
