<svg width="25" height="25" viewBox="0 0 25 25" fill="none" xmlns="http://www.w3.org/2000/svg">
<g id="Icon / Instagram">
<path id="Vector" fill-rule="evenodd" clip-rule="evenodd" d="M16.1666 3.63086H8.16663C5.40521 3.63086 3.16663 5.86944 3.16663 8.63086V16.6309C3.16663 19.3923 5.40521 21.6309 8.16663 21.6309H16.1666C18.928 21.6309 21.1666 19.3923 21.1666 16.6309V8.63086C21.1666 5.86944 18.928 3.63086 16.1666 3.63086ZM19.4166 16.6309C19.4111 18.4235 17.9592 19.8754 16.1666 19.8809H8.16663C6.37398 19.8754 4.92212 18.4235 4.91663 16.6309V8.63086C4.92212 6.83821 6.37398 5.38635 8.16663 5.38086H16.1666C17.9592 5.38635 19.4111 6.83821 19.4166 8.63086V16.6309ZM16.9166 8.88086C17.4689 8.88086 17.9166 8.43314 17.9166 7.88086C17.9166 7.32858 17.4689 6.88086 16.9166 6.88086C16.3643 6.88086 15.9166 7.32858 15.9166 7.88086C15.9166 8.43314 16.3643 8.88086 16.9166 8.88086ZM12.1666 8.13086C9.68135 8.13086 7.66663 10.1456 7.66663 12.6309C7.66663 15.1162 9.68135 17.1309 12.1666 17.1309C14.6519 17.1309 16.6666 15.1162 16.6666 12.6309C16.6693 11.4366 16.196 10.2904 15.3515 9.44594C14.507 8.60145 13.3609 8.1282 12.1666 8.13086ZM9.41663 12.6309C9.41663 14.1497 10.6478 15.3809 12.1666 15.3809C13.6854 15.3809 14.9166 14.1497 14.9166 12.6309C14.9166 11.1121 13.6854 9.88086 12.1666 9.88086C10.6478 9.88086 9.41663 11.1121 9.41663 12.6309Z" fill="black"/>
</g>
</svg>
