<svg xmlns="http://www.w3.org/2000/svg" viewBox="0 0 64 64" id="launch">
  <path d="M24 19c.6 0 1-.4 1-1v-2c0-5.9 5.2-11.1 7-12.7.8.7 2.2 2.1 3.5 3.8.3.4 1 .5 1.4.2.4-.3.5-1 .2-1.4-2.2-2.9-4.4-4.7-4.5-4.7-.4-.3-.9-.3-1.2 0C31 1.5 23 7.9 23 16v2c0 .6.4 1 1 1z"></path>
  <path d="M32 9c-.9 0-1.7.2-2.5.7-.5.3-.6.9-.4 1.4.3.5.9.6 1.4.4.5-.3 1-.4 1.5-.4 1.7 0 3 1.3 3 3s-1.3 3-3 3-3-1.3-3-3c0-.6-.4-1-1-1s-1 .4-1 1c0 2.8 2.2 5 5 5s5-2.2 5-5S34.8 9 32 9zm18 6c.6 0 1-.4 1-1s-.4-1-1-1-1-.4-1-1 .4-1 1-1 1-.4 1-1 .4-1 1-1h.1c.5.2 1.1.1 1.3-.4.5-1 1.5-1.6 2.6-1.6 1.7 0 3 1.3 3 3 0 .6.4 1 1 1s1 .4 1 1-.4 1-1 1h-6c-.6 0-1 .4-1 1s.4 1 1 1h6c1.7 0 3-1.3 3-3 0-1.3-.9-2.5-2.1-2.9C60.5 6.8 58.5 5 56 5c-1.6 0-3.1.7-4 2-1.4 0-2.5.9-2.9 2.1-1.2.4-2.1 1.5-2.1 2.9 0 1.7 1.3 3 3 3zM15 28c0 1.7 1.3 3 3 3h10c1.7 0 3-1.3 3-3 0-1.3-.9-2.5-2.1-2.9-.4-2.3-2.4-4.1-4.9-4.1-.6 0-1 .4-1 1s.4 1 1 1c1.7 0 3 1.3 3 3 0 .6.4 1 1 1s1 .4 1 1-.4 1-1 1H18c-.6 0-1-.4-1-1s.4-1 1-1 1-.4 1-1 .4-1 1-1h.1c.5.2 1.1 0 1.3-.4.2-.5 0-1.1-.4-1.3-.5-.3-.7-.3-1-.3-1.4 0-2.5.9-2.9 2.1-1.2.4-2.1 1.5-2.1 2.9zM4 11h6.1c.6 0 1-.4 1-1s-.4-1-1-1H4c-.6 0-1-.4-1-1s.4-1 1-1 1-.4 1-1 .4-1 1-1h.1c.5.2 1.1.1 1.3-.4C7.9 3.6 8.9 3 10 3c1.7 0 3 1.3 3 3 0 .6.4 1 1 1s1 .4 1 1-.4 1-1 1-1 .4-1 1 .4 1 1 1c1.7 0 3-1.3 3-3 0-1.3-.9-2.5-2.1-2.9C14.5 2.8 12.5 1 10 1c-1.6 0-3.1.7-4 2-1.3 0-2.5.9-2.9 2.1C1.9 5.5 1 6.6 1 8c0 1.7 1.3 3 3 3z"></path>
  <path d="M40.3 53c.4 0 .8-.3.9-.7.7-2 2.6-3.3 4.8-3.3.7 0 1.3.2 1.9.4.3.1.5 0 .8-.1.2-.1.4-.3.5-.6.6-2.2 2.6-3.7 4.8-3.7 1.2 0 2.4.5 3.4 1.3.4.4 1 .3 1.4-.1.4-.4.3-1-.1-1.4-1.3-1.2-3-1.8-4.7-1.8-2.8 0-5.3 1.7-6.4 4.2-.5-.1-1-.2-1.6-.2-2.8 0-5.2 1.6-6.4 4-.9.1-1.8.3-2.6.8v-1.5l3.5-5.3H46c.6 0 1-.4 1-1v-4c0-.3-.2-.6-.4-.8L41 35.5V16c0-1.9-.5-3.9-1.3-5.8-.2-.5-.8-.7-1.3-.5-.5.2-.7.8-.5 1.3.8 1.7 1.2 3.4 1.2 5v27h-6v-7c0-.6-.4-1-1-1s-1 .4-1 1v7h-6v-9.2c0-.6-.4-1-1-1s-1 .4-1 1v1.7l-5.6 3.7c-.3.2-.5.5-.5.8v4c0 .6.4 1 1 1h5.5l3.5 5.3v1.4c-.8-.4-1.7-.7-2.6-.7-1.2-2.4-3.7-4-6.4-4-.6 0-1.1 0-1.6.2-1.1-2.5-3.6-4.2-6.4-4.2-3.9 0-7 3.1-7 7 0 .5.1 1 .2 1.4v.2c.1.5.6.9 1.2.8.5-.1.9-.6.8-1.2V51c-.1-.4-.2-.7-.2-1 0-2.8 2.2-5 5-5 2.2 0 4.2 1.5 4.8 3.7.1.3.3.5.5.6.3.1.6.1.8 0 .5-.2 1.1-.3 1.8-.3 2.1 0 4 1.4 4.8 3.4.1.4.5.6.9.6h.2c1.3 0 2.5.5 3.4 1.4.2.2.4.3.7.3.1 0 .3 0 .4-.1.4-.2.6-.5.6-.9V51h6v2.7c0 .4.2.8.6.9.4.2.8.1 1.1-.2.7-.7 1.9-1.4 3.4-1.4h.3zm.7-15.1 4 2.7V43h-4v-5.1zM23 43h-4v-2.5l4-2.7V43zm12.5 6h-6.9l-2.7-4h12.3l-2.7 4zm-7.4 12H8c-2.8 0-5-2.2-5-5 0-.4.1-.8.2-1.2.1-.5-.2-1.1-.7-1.2-.5-.1-1.1.2-1.2.7-.2.5-.3 1.1-.3 1.7 0 3.9 3.1 7 7 7h20.1c.6 0 1-.4 1-1s-.5-1-1-1zm5.6 0H32c-.6 0-1 .4-1 1s.4 1 1 1h1.7c.6 0 1-.4 1-1s-.4-1-1-1zm26.7-10.4c-.4-.3-1.1-.3-1.4.2-.3.4-.3 1.1.2 1.4 1.2.9 1.8 2.3 1.8 3.8 0 2.8-2.2 5-5 5H38.1c-.6 0-1 .4-1 1s.4 1 1 1H56c3.9 0 7-3.1 7-7 0-2.1-.9-4.1-2.6-5.4z"></path>
  <path d="M9.5 59h6c.6 0 1-.4 1-1s-.4-1-1-1h-6c-1.1 0-2.1-.6-2.6-1.5-.3-.5-.9-.6-1.4-.4-.5.3-.6.9-.4 1.4C6 58 7.7 59 9.5 59zm12 0c.6 0 1-.4 1-1s-.4-1-1-1h-2c-.6 0-1 .4-1 1s.4 1 1 1h2zM36 29c-.6 0-1 .4-1 1v10c0 .6.4 1 1 1s1-.4 1-1V30c0-.6-.4-1-1-1zm1-5c0-.6-.4-1-1-1s-1 .4-1 1v2c0 .6.4 1 1 1s1-.4 1-1v-2z"></path>
</svg>
