<svg width="25" height="25" viewBox="0 0 25 25" fill="none" xmlns="http://www.w3.org/2000/svg">
<g id="Icon / LinkedIn">
<path id="Vector" fill-rule="evenodd" clip-rule="evenodd" d="M4.66663 3.63086C3.8382 3.63086 3.16663 4.30243 3.16663 5.13086V20.1309C3.16663 20.9593 3.8382 21.6309 4.66663 21.6309H19.6666C20.495 21.6309 21.1666 20.9593 21.1666 20.1309V5.13086C21.1666 4.30243 20.495 3.63086 19.6666 3.63086H4.66663ZM8.68739 7.63358C8.69302 8.58983 7.97724 9.17905 7.12786 9.17483C6.3277 9.17061 5.6302 8.53358 5.63442 7.63499C5.63864 6.78983 6.30661 6.11061 7.17427 6.1303C8.05458 6.14999 8.69302 6.79546 8.68739 7.63358ZM12.4463 10.3926H9.92634H9.92493V18.9525H12.5883V18.7528C12.5883 18.3729 12.588 17.9929 12.5877 17.6128C12.5869 16.599 12.586 15.5841 12.5912 14.5706C12.5926 14.3245 12.6038 14.0686 12.6671 13.8337C12.9047 12.9562 13.6937 12.3895 14.574 12.5288C15.1393 12.6173 15.5133 12.945 15.6708 13.478C15.7679 13.8112 15.8115 14.1698 15.8157 14.5172C15.8271 15.5648 15.8255 16.6124 15.8239 17.6601C15.8233 18.0299 15.8227 18.3999 15.8227 18.7697V18.9511H18.4946V18.7458C18.4946 18.2938 18.4944 17.8419 18.4941 17.39C18.4936 16.2605 18.493 15.131 18.496 14.0011C18.4974 13.4906 18.4426 12.9872 18.3174 12.4936C18.1304 11.7595 17.7437 11.152 17.1151 10.7133C16.6693 10.401 16.1799 10.2 15.6329 10.1775C15.5706 10.1749 15.5078 10.1715 15.4447 10.1681C15.165 10.1529 14.8807 10.1376 14.6133 10.1915C13.8483 10.3448 13.1762 10.695 12.6685 11.3123C12.6095 11.3831 12.5518 11.455 12.4657 11.5623L12.4463 11.5866V10.3926ZM5.84827 18.9553H8.49905V10.3982H5.84827V18.9553Z" fill="black"/>
</g>
</svg>
