<svg width="25" height="25" viewBox="0 0 25 25" fill="none" xmlns="http://www.w3.org/2000/svg">
<g id="Icon / LinkedIn">
<path id="Vector" fill-rule="evenodd" clip-rule="evenodd" d="M5.33337 3.63135C4.50494 3.63135 3.83337 4.30292 3.83337 5.13135V20.1313C3.83337 20.9597 4.50494 21.6313 5.33337 21.6313H20.3334C21.1618 21.6313 21.8334 20.9597 21.8334 20.1313V5.13135C21.8334 4.30292 21.1618 3.63135 20.3334 3.63135H5.33337ZM9.35413 7.63407C9.35976 8.59032 8.64398 9.17954 7.7946 9.17532C6.99444 9.1711 6.29694 8.53407 6.30116 7.63548C6.30538 6.79032 6.97335 6.1111 7.84101 6.13079C8.72132 6.15048 9.35976 6.79595 9.35413 7.63407ZM13.1131 10.3931H10.5931H10.5917V18.9529H13.2551V18.7532C13.2551 18.3733 13.2548 17.9933 13.2545 17.6132C13.2537 16.5994 13.2528 15.5845 13.258 14.571C13.2594 14.3249 13.2706 14.069 13.3339 13.8341C13.5715 12.9566 14.3605 12.3899 15.2408 12.5292C15.8061 12.6177 16.1801 12.9454 16.3376 13.4784C16.4347 13.8116 16.4783 14.1702 16.4825 14.5176C16.4939 15.5652 16.4923 16.6128 16.4907 17.6605C16.4901 18.0303 16.4895 18.4003 16.4895 18.7701V18.9515H19.1614V18.7462C19.1614 18.2942 19.1612 17.8423 19.1609 17.3904C19.1604 16.2609 19.1598 15.1314 19.1628 14.0015C19.1642 13.491 19.1094 12.9876 18.9842 12.494C18.7972 11.7599 18.4105 11.1524 17.7819 10.7137C17.3361 10.4015 16.8467 10.2004 16.2997 10.1779C16.2374 10.1754 16.1746 10.172 16.1115 10.1686C15.8318 10.1534 15.5475 10.1381 15.2801 10.192C14.5151 10.3453 13.843 10.6954 13.3353 11.3127C13.2763 11.3835 13.2186 11.4554 13.1325 11.5627L13.1131 11.587V10.3931ZM6.51501 18.9557H9.16579V10.3987H6.51501V18.9557Z" fill="black"/>
</g>
</svg>
