<svg width="25" height="25" viewBox="0 0 25 25" fill="none" xmlns="http://www.w3.org/2000/svg">
<g id="Icon / map">
<g id="icon">
<path d="M12.5001 14.3887C14.7061 14.3887 16.5001 12.5947 16.5001 10.3887C16.5001 8.18267 14.7061 6.38867 12.5001 6.38867C10.2941 6.38867 8.50006 8.18267 8.50006 10.3887C8.50006 12.5947 10.2941 14.3887 12.5001 14.3887ZM12.5001 8.38867C13.6031 8.38867 14.5001 9.28567 14.5001 10.3887C14.5001 11.4917 13.6031 12.3887 12.5001 12.3887C11.3971 12.3887 10.5001 11.4917 10.5001 10.3887C10.5001 9.28567 11.3971 8.38867 12.5001 8.38867Z" fill="black"/>
<path d="M11.9201 22.2027C12.0893 22.3235 12.2921 22.3885 12.5001 22.3885C12.7081 22.3885 12.9108 22.3235 13.0801 22.2027C13.3841 21.9877 20.5291 16.8287 20.5001 10.3887C20.5001 5.97767 16.9111 2.38867 12.5001 2.38867C8.08909 2.38867 4.50009 5.97767 4.50009 10.3837C4.47109 16.8287 11.6161 21.9877 11.9201 22.2027ZM12.5001 4.38867C15.8091 4.38867 18.5001 7.07967 18.5001 10.3937C18.5211 14.8317 14.1121 18.8167 12.5001 20.1237C10.8891 18.8157 6.47909 14.8297 6.50009 10.3887C6.50009 7.07967 9.19109 4.38867 12.5001 4.38867Z" fill="black"/>
</g>
</g>
</svg>
