<svg width="25" height="25" viewBox="0 0 25 25" fill="none" xmlns="http://www.w3.org/2000/svg">
<g id="Icon / phone">
<path id="icon" d="M18.2071 12.6819C18.1143 12.5889 18.0041 12.5152 17.8828 12.4649C17.7615 12.4146 17.6314 12.3887 17.5001 12.3887C17.3688 12.3887 17.2387 12.4146 17.1174 12.4649C16.9961 12.5152 16.8859 12.5889 16.7931 12.6819L15.1991 14.2759C14.4601 14.0559 13.0811 13.5559 12.2071 12.6819C11.3331 11.8079 10.8331 10.4289 10.6131 9.68987L12.2071 8.09587C12.3 8.00309 12.3738 7.89288 12.4241 7.77157C12.4744 7.65025 12.5003 7.52021 12.5003 7.38887C12.5003 7.25754 12.4744 7.12749 12.4241 7.00618C12.3738 6.88486 12.3 6.77466 12.2071 6.68187L8.20709 2.68187C8.1143 2.58893 8.0041 2.51519 7.88278 2.46488C7.76147 2.41457 7.63142 2.38867 7.50009 2.38867C7.36876 2.38867 7.23871 2.41457 7.1174 2.46488C6.99608 2.51519 6.88588 2.58893 6.79309 2.68187L4.08109 5.39387C3.70109 5.77387 3.48709 6.29587 3.49509 6.82887C3.51809 8.25287 3.89509 13.1989 7.79309 17.0969C11.6911 20.9949 16.6371 21.3709 18.0621 21.3949H18.0901C18.6181 21.3949 19.1171 21.1869 19.4951 20.8089L22.2071 18.0969C22.3 18.0041 22.3738 17.8939 22.4241 17.7726C22.4744 17.6513 22.5003 17.5212 22.5003 17.3899C22.5003 17.2585 22.4744 17.1285 22.4241 17.0072C22.3738 16.8859 22.3 16.7757 22.2071 16.6829L18.2071 12.6819ZM18.0801 19.3939C16.8321 19.3729 12.5621 19.0379 9.20709 15.6819C5.84109 12.3159 5.51509 8.03087 5.49509 6.80787L7.50009 4.80287L10.0861 7.38887L8.79309 8.68187C8.67555 8.79932 8.58913 8.94421 8.54164 9.10344C8.49415 9.26267 8.48709 9.43123 8.52109 9.59387C8.54509 9.70887 9.13209 12.4359 10.7921 14.0959C12.4521 15.7559 15.1791 16.3429 15.2941 16.3669C15.4566 16.4018 15.6254 16.3953 15.7847 16.348C15.9441 16.3006 16.089 16.2139 16.2061 16.0959L17.5001 14.8029L20.0861 17.3889L18.0801 19.3939Z" fill="black"/>
</g>
</svg>
