<svg width="21" height="20" viewBox="0 0 21 20" fill="none" xmlns="http://www.w3.org/2000/svg">
<path id="Vector" d="M9.57068 1.11234C9.91442 0.295885 11.0852 0.295886 11.4289 1.11235L13.4577 5.93123C13.6027 6.27543 13.9304 6.51061 14.3065 6.5404L19.5725 6.95748C20.4647 7.02814 20.8265 8.12813 20.1467 8.7034L16.1346 12.0987C15.848 12.3412 15.7228 12.7218 15.8104 13.0843L17.0361 18.161C17.2438 19.0211 16.2967 19.701 15.5328 19.2401L11.0243 16.5196C10.7023 16.3252 10.2973 16.3252 9.97528 16.5196L5.46679 19.2401C4.70291 19.701 3.75576 19.0211 3.96343 18.161L5.18922 13.0843C5.27678 12.7218 5.15162 12.3412 4.86506 12.0987L0.852864 8.7034C0.173084 8.12813 0.534869 7.02814 1.42709 6.95748L6.69316 6.5404C7.0693 6.51061 7.39696 6.27543 7.54187 5.93123L9.57068 1.11234Z" fill="black"/>
</svg>
